<mxfile host="Electron" modified="2023-09-19T15:22:54.026Z" agent="Mozilla/5.0 (Windows NT 10.0; Win64; x64) AppleWebKit/537.36 (KHTML, like Gecko) draw.io/21.5.1 Chrome/112.0.5615.204 Electron/24.6.0 Safari/537.36" etag="pQDI1Z4c_tFO01etIUVE" version="21.5.1" type="device">
  <diagram name="Page-1" id="jAoJuEybVHPauLxlukGf">
    <mxGraphModel dx="1028" dy="573" grid="1" gridSize="10" guides="1" tooltips="1" connect="1" arrows="1" fold="1" page="1" pageScale="1" pageWidth="1169" pageHeight="1654" math="0" shadow="0">
      <root>
        <mxCell id="0" />
        <mxCell id="1" parent="0" />
        <mxCell id="dLEOJXs6eGR_keRu9qTf-2" value="&lt;p style=&quot;margin:0px;margin-top:4px;margin-left:10px;text-align:left;&quot;&gt;&lt;b&gt;std&lt;/b&gt;&amp;nbsp;ModelSelectControl&lt;/p&gt;" style="html=1;shape=mxgraph.sysml.package;labelX=147.2;align=left;spacingLeft=10;overflow=fill;recursiveResize=0;container=0;" vertex="1" parent="1">
          <mxGeometry x="30" y="30" width="1110" height="1024" as="geometry" />
        </mxCell>
        <mxCell id="dLEOJXs6eGR_keRu9qTf-3" value="Lijst met gebruikte constantes:&lt;br&gt;FONTHEIGHT : int&amp;nbsp; &amp;nbsp; &amp;nbsp; &amp;nbsp; &amp;nbsp; &amp;nbsp; &amp;nbsp; &amp;nbsp; &amp;nbsp;// De hoogte van het gebruikte font&lt;br&gt;SCREENWIDTH: int&lt;span style=&quot;&quot;&gt;&lt;span style=&quot;white-space: pre;&quot;&gt;&amp;nbsp;&amp;nbsp;&amp;nbsp;&amp;nbsp;&lt;/span&gt;&lt;/span&gt;&lt;span style=&quot;&quot;&gt;&lt;span style=&quot;white-space: pre;&quot;&gt;&amp;nbsp;&amp;nbsp;&amp;nbsp;&amp;nbsp;&lt;/span&gt;&lt;/span&gt;// De breedte van het scherm&lt;br&gt;SCREENHEIGHT: int&amp;nbsp; &amp;nbsp; &amp;nbsp; &amp;nbsp; &amp;nbsp; &amp;nbsp; &amp;nbsp; // De hoogte van het scherm&lt;br&gt;FONTCOLOR: uint32&lt;span style=&quot;&quot;&gt;&lt;span style=&quot;white-space: pre;&quot;&gt;&amp;nbsp;&amp;nbsp;&amp;nbsp;&amp;nbsp;&lt;/span&gt;&lt;/span&gt;&lt;span style=&quot;&quot;&gt;&lt;span style=&quot;white-space: pre;&quot;&gt;&amp;nbsp;&amp;nbsp;&amp;nbsp;&amp;nbsp;&lt;/span&gt;&lt;/span&gt;// Kleur van de letters&lt;br&gt;BGCOLOR : uint32&lt;span style=&quot;&quot;&gt;&lt;span style=&quot;white-space: pre;&quot;&gt;&amp;nbsp;&amp;nbsp;&amp;nbsp;&amp;nbsp;&lt;/span&gt;&lt;/span&gt;&lt;span style=&quot;&quot;&gt;&lt;span style=&quot;white-space: pre;&quot;&gt;&amp;nbsp;&amp;nbsp;&amp;nbsp;&amp;nbsp;&lt;/span&gt;&lt;/span&gt;&lt;span style=&quot;&quot;&gt;&lt;span style=&quot;white-space: pre;&quot;&gt;&amp;nbsp;&amp;nbsp;&amp;nbsp;&amp;nbsp;&lt;/span&gt;&lt;/span&gt;// Achtergrondkleur van het scherm&lt;br&gt;BNBGCOLOR:uint32&lt;span style=&quot;&quot;&gt;&lt;span style=&quot;white-space: pre;&quot;&gt;&amp;nbsp;&amp;nbsp;&amp;nbsp;&amp;nbsp;&lt;/span&gt;&lt;/span&gt;&lt;span style=&quot;&quot;&gt;&lt;span style=&quot;white-space: pre;&quot;&gt;&amp;nbsp;&amp;nbsp;&amp;nbsp;&amp;nbsp; &lt;/span&gt;&lt;/span&gt;// Achtergrondkleur van een button&lt;br&gt;BNSELBGCOLOR:uint32&#x9;&lt;span style=&quot;border-color: var(--border-color);&quot;&gt;&lt;span style=&quot;white-space: pre;&quot;&gt;&amp;nbsp;&amp;nbsp;&amp;nbsp;&lt;/span&gt;&lt;/span&gt;// Achtergrondkleur van de laatstgeselecteerde button" style="shape=note;size=15;align=left;spacingLeft=10;html=1;whiteSpace=wrap;" vertex="1" parent="1">
          <mxGeometry x="650" y="190" width="470" height="120" as="geometry" />
        </mxCell>
        <mxCell id="dLEOJXs6eGR_keRu9qTf-11" value="" style="line;strokeWidth=1;fillColor=none;align=left;verticalAlign=middle;spacingTop=-1;spacingLeft=3;spacingRight=3;rotatable=0;labelPosition=right;points=[];portConstraint=eastwest;strokeColor=inherit;" vertex="1" parent="1">
          <mxGeometry x="30" y="168" width="1110" height="10" as="geometry" />
        </mxCell>
        <mxCell id="dLEOJXs6eGR_keRu9qTf-13" value="lokale convenience functies:&lt;br&gt;Zelfde als bij HoofdmenuControl:&lt;br&gt;clearScreen(),&amp;nbsp;toonText(int x,y; string&amp;amp; str) en drawTouchArea (TouchArea&amp;amp; ta; string&amp;amp; str)&lt;br&gt;&lt;br&gt;void toonLijst(indexEersteFile)&lt;br&gt;{&lt;br&gt;&amp;nbsp; &amp;nbsp; toonText(0,0,&quot;kies een bestand&quot;);&lt;br&gt;&amp;nbsp; &amp;nbsp; // Onderstaand algoritme bevat geen toestand. Er lijkt niet veel&amp;nbsp; toegevoegde&lt;br&gt;&amp;nbsp; &amp;nbsp; // waarde&amp;nbsp; te zijn om het in modelvorm te representeren.&lt;br&gt;&amp;nbsp; &amp;nbsp; for (int i=0; i&amp;lt;10; i++)&lt;br&gt;&amp;nbsp; &amp;nbsp; {&lt;br&gt;&amp;nbsp; &amp;nbsp; &amp;nbsp; &amp;nbsp; &amp;nbsp;index = indexEersteFile+i;&lt;br&gt;&lt;span style=&quot;&quot;&gt;&lt;span style=&quot;&quot;&gt;&amp;nbsp;&amp;nbsp;&amp;nbsp;&amp;nbsp;&lt;/span&gt;&lt;/span&gt;&amp;nbsp; &amp;nbsp; &amp;nbsp;if(index&amp;gt;=filenames.size() break;&lt;br&gt;&amp;nbsp; &amp;nbsp; &amp;nbsp; &amp;nbsp; &amp;nbsp;strFilename=filenames[index];&lt;br&gt;&amp;nbsp; &amp;nbsp; &amp;nbsp; &amp;nbsp; &amp;nbsp;if(strFilename==&quot;&quot;) break;&lt;br&gt;&amp;nbsp; &amp;nbsp; &amp;nbsp; &amp;nbsp; &amp;nbsp;displayControl.drawTouchArea(arTaBestanden[i],&amp;nbsp;strFilename);&lt;br&gt;&amp;nbsp; &amp;nbsp; }&lt;br&gt;}&lt;br&gt;&lt;br&gt;int getLijstEntryIndexVanTouch(pTa:TouchArea*)&lt;br&gt;{&lt;br&gt;&amp;nbsp; &amp;nbsp; int nLijstEntry = -1;&amp;nbsp; // Betekent: niet op een lijst entry geklikt.&lt;br&gt;&amp;nbsp; &amp;nbsp; for (int i=0; i&amp;lt;arTaBestanden.size(); i++)&lt;br&gt;&amp;nbsp; &amp;nbsp; {&lt;br&gt;&amp;nbsp; &amp;nbsp; &amp;nbsp; &amp;nbsp; &amp;nbsp;if (pTa == &amp;amp;arTaBestanden[i])&lt;br&gt;&lt;span style=&quot;background-color: initial;&quot;&gt;&amp;nbsp; &amp;nbsp; &amp;nbsp; &amp;nbsp; &amp;nbsp;{&lt;/span&gt;&lt;br&gt;&lt;blockquote style=&quot;margin: 0 0 0 40px; border: none; padding: 0px;&quot;&gt;&lt;span style=&quot;background-color: initial;&quot;&gt;&amp;nbsp; &amp;nbsp; &amp;nbsp;nLijstEntry=i;&lt;br&gt;&lt;/span&gt;&lt;span style=&quot;background-color: initial;&quot;&gt;&amp;nbsp; &amp;nbsp; &amp;nbsp;break;&lt;/span&gt;&lt;/blockquote&gt;&amp;nbsp; &amp;nbsp; &amp;nbsp; &amp;nbsp; &amp;nbsp;}&lt;br&gt;&amp;nbsp; &amp;nbsp; &amp;nbsp;}&lt;br&gt;&amp;nbsp; &amp;nbsp; return nLijstEntry;&lt;br&gt;}" style="shape=note;size=15;align=left;spacingLeft=10;html=1;whiteSpace=wrap;" vertex="1" parent="1">
          <mxGeometry x="650" y="323" width="470" height="497" as="geometry" />
        </mxCell>
        <mxCell id="dLEOJXs6eGR_keRu9qTf-41" value="&lt;font style=&quot;font-size: 20px;&quot;&gt;&lt;b&gt;...&lt;/b&gt;&lt;/font&gt;" style="text;html=1;strokeColor=none;fillColor=none;align=center;verticalAlign=middle;whiteSpace=wrap;rounded=0;" vertex="1" parent="1">
          <mxGeometry x="500" y="80" width="60" height="30" as="geometry" />
        </mxCell>
        <mxCell id="dLEOJXs6eGR_keRu9qTf-42" value="&lt;font style=&quot;font-size: 20px;&quot;&gt;&lt;b&gt;...&lt;/b&gt;&lt;/font&gt;" style="text;html=1;strokeColor=none;fillColor=none;align=center;verticalAlign=middle;whiteSpace=wrap;rounded=0;" vertex="1" parent="1">
          <mxGeometry x="290" y="460" width="60" height="30" as="geometry" />
        </mxCell>
      </root>
    </mxGraphModel>
  </diagram>
</mxfile>
